<svg width="52" height="52" viewBox="0 0 52 52" fill="none" xmlns="http://www.w3.org/2000/svg">
<path d="M26 4.41992C14.0833 4.41992 4.33334 14.1483 4.33334 26.1299C4.33334 36.9633 12.2633 45.9549 22.62 47.5799V32.4133H17.1167V26.1299H22.62V21.3416C22.62 15.9033 25.8483 12.9133 30.81 12.9133C33.1717 12.9133 35.6417 13.3249 35.6417 13.3249V18.6766H32.9117C30.225 18.6766 29.38 20.3449 29.38 22.0566V26.1299H35.4033L34.4283 32.4133H29.38V47.5799C34.4856 46.7736 39.1348 44.1685 42.4882 40.2351C45.8416 36.3016 47.6783 31.2988 47.6667 26.1299C47.6667 14.1483 37.9167 4.41992 26 4.41992Z" fill="white"/>
</svg>
