<svg width="17" height="16" viewBox="0 0 17 16" fill="none" xmlns="http://www.w3.org/2000/svg">
<path d="M11.3128 9.33326H10.7862L10.5995 9.15326C11.3995 8.21993 11.8128 6.9466 11.5862 5.59326C11.2728 3.73993 9.72616 2.25993 7.85949 2.03326C5.03949 1.6866 2.66616 4.05993 3.01282 6.87993C3.23949 8.74659 4.71949 10.2933 6.57282 10.6066C7.92616 10.8333 9.19949 10.4199 10.1328 9.61993L10.3128 9.80659V10.3333L13.1462 13.1666C13.4195 13.4399 13.8662 13.4399 14.1395 13.1666C14.4128 12.8933 14.4128 12.4466 14.1395 12.1733L11.3128 9.33326ZM7.31282 9.33326C5.65282 9.33326 4.31282 7.99326 4.31282 6.33326C4.31282 4.67326 5.65282 3.33326 7.31282 3.33326C8.97282 3.33326 10.3128 4.67326 10.3128 6.33326C10.3128 7.99326 8.97282 9.33326 7.31282 9.33326Z" fill="#595959"/>
</svg>
