<svg width="16" height="16" viewBox="0 0 16 16" fill="none" xmlns="http://www.w3.org/2000/svg">
<path d="M7.99203 1.33325C4.31203 1.33325 1.33203 4.31992 1.33203 7.99992C1.33203 11.6799 4.31203 14.6666 7.99203 14.6666C11.6787 14.6666 14.6654 11.6799 14.6654 7.99992C14.6654 4.31992 11.6787 1.33325 7.99203 1.33325ZM7.9987 13.3333C5.05203 13.3333 2.66536 10.9466 2.66536 7.99992C2.66536 5.05325 5.05203 2.66659 7.9987 2.66659C10.9454 2.66659 13.332 5.05325 13.332 7.99992C13.332 10.9466 10.9454 13.3333 7.9987 13.3333ZM8.33203 4.66659H7.33203V8.66659L10.832 10.7666L11.332 9.94659L8.33203 8.16659V4.66659Z" fill="#61666E"/>
</svg>
