<svg width="52" height="52" viewBox="0 0 52 52" fill="none" xmlns="http://www.w3.org/2000/svg">
<path d="M21.6666 32.4999L32.9116 25.9999L21.6666 19.4999V32.4999ZM46.7133 15.5349C46.995 16.5533 47.19 17.9183 47.32 19.6516C47.4716 21.3849 47.5366 22.8799 47.5366 24.1799L47.6666 25.9999C47.6666 30.7449 47.32 34.2333 46.7133 36.4649C46.1716 38.4149 44.915 39.6716 42.965 40.2133C41.9466 40.4949 40.0833 40.6899 37.2233 40.8199C34.4066 40.9716 31.8283 41.0366 29.445 41.0366L26 41.1666C16.9216 41.1666 11.2666 40.8199 9.03498 40.2133C7.08498 39.6716 5.82831 38.4149 5.28665 36.4649C5.00498 35.4466 4.80998 34.0816 4.67998 32.3483C4.52831 30.6149 4.46331 29.1199 4.46331 27.8199L4.33331 25.9999C4.33331 21.2549 4.67998 17.7666 5.28665 15.5349C5.82831 13.5849 7.08498 12.3283 9.03498 11.7866C10.0533 11.5049 11.9166 11.3099 14.7766 11.1799C17.5933 11.0283 20.1716 10.9633 22.555 10.9633L26 10.8333C35.0783 10.8333 40.7333 11.1799 42.965 11.7866C44.915 12.3283 46.1716 13.5849 46.7133 15.5349Z" fill="white"/>
</svg>
