<svg xmlns="http://www.w3.org/2000/svg" width="335" height="261" viewBox="0 0 335 261" fill="none">
<g clip-path="url(#clip0)">
<path fill-rule="evenodd" clip-rule="evenodd" d="M135.8 16.4C135.2 16.8 128.3 22.4 126.6 23.9H145.1C143.3 22.5 136.3 16.9 135.8 16.4ZM98.3 54.7C103.4 64.1 122.1 98 123.7 100.9V81.2L118.1 71.4L98.3 54.7ZM112.4 42H158.6L163.5 45.8C164.4 45.1 165.3 44.3 166.2 43.7C161.4 39.5 156.6 35.3 156.5 35.2H114.3C114.2 35.3 109.8 39.4 105.4 43.5C106.3 44.3 107.3 45.1 108.3 45.9L112.4 42ZM96.3 104.2V77.8L107.1 97.6L96.3 104.2ZM167.4 74.6V85.2L148 100.9V110.8C149.6 109.5 175 88.9 175.4 88.6V68.1C174.9 68.5 171.5 71.2 167.4 74.6Z" fill="#5D9B44"/>
<path fill-rule="evenodd" clip-rule="evenodd" d="M124.7 102.9C124.7 103.1 124.5 103.3 124.3 103.4C124.1 103.4 123.8 103.4 123.7 103.1C123.7 103.1 96.2 53 96.1 52.8C96 52.7 95.8 52.6 95.6 52.4L84.6 43.2V95C84.9 95.3 93.8 102.5 95.2 103.6V75.7C95.2 75.5 95.3 75.3 95.6 75.2C95.8 75.2 96.1 75.3 96.2 75.5C96.2 75.5 124.2 126.9 124.3 127.1C124.5 127.2 133.6 134.6 135.1 135.8C135.1 133.7 135.3 86.4 135.3 85.9L124.7 76.9V102.9V102.9ZM183.2 45.2L171.6 54.9C156.8 67.4 136.3 84.6 135.8 85L124.5 75.4C116.3 68.5 105.2 59.1 96.9 52.1L85.1 42.2C85.9 41.5 93.1 35.7 93.7 35.3C94.3 35.8 135.5 69.1 135.5 69.1C135.7 69.3 136 69.3 136.1 69.1C136.1 69.1 177.5 35.9 178.1 35.4C178.7 35.8 185.8 41.6 186.6 42.3C186.5 42.4 185.3 43.4 183.2 45.2ZM183.8 46C183.8 46 172.8 55.2 161.4 64.8L136.3 85.9V135.7C137.9 134.4 186.7 94.8 187.1 94.5V43.4C186 44.2 183.8 46 183.8 46ZM176.5 88.9V67C176.5 66.8 176.4 66.6 176.2 66.5C176 66.4 175.8 66.4 175.7 66.6L147.3 89.5C147.2 89.6 147.1 89.7 147.1 89.9V111.8C147.1 112 147.2 112.2 147.4 112.2C147.6 112.3 147.8 112.3 147.9 112.1L176.3 89.1C176.4 89.2 176.5 89 176.5 88.9ZM113.7 34.2C113.8 34.1 113.9 34.1 114.1 34.1H156.7C156.9 34.1 156.9 34.2 157.1 34.2C157.1 34.2 162.2 38.6 167.1 42.9C172.2 38.9 176.2 35.6 177.5 34.6C170.4 28.9 161.8 21.9 161.8 21.9C161.8 21.9 136.3 1.59999 135.8 1.09999C135.4 1.39999 109.1 22.8 94.5 34.6C95.8 35.7 99.7 38.8 104.6 42.8C109.1 38.5 113.7 34.2 113.7 34.2ZM124.8 24L135.4 15.4C135.6 15.2 135.9 15.2 136 15.4L146.7 24C146.9 24.2 146.9 24.4 146.9 24.6C146.8 24.8 146.6 25 146.4 25H125C124.8 25 124.6 24.8 124.5 24.6C124.6 24.3 124.7 24.1 124.8 24Z" fill="#8AC341"/>
<path fill-rule="evenodd" clip-rule="evenodd" d="M125.1 24.9H146.5C146.7 24.9 146.9 24.8 147 24.6C147.1 24.4 147 24.2 146.8 24L136.1 15.4C135.9 15.2 135.6 15.2 135.5 15.4L124.8 24C124.6 24.2 124.6 24.4 124.6 24.6C124.7 24.7 124.9 24.9 125.1 24.9ZM135.8 16.4C136.3 16.8 143.3 22.4 145.1 23.8H126.6C128.3 22.5 135.2 16.9 135.8 16.4ZM187.8 41.9C188 42 188.1 42.2 188.1 42.4V94.4C188.1 94.4 188 95.2 187.9 95.3L136.1 137.4C136 137.5 135.9 137.6 135.8 137.6C135.6 137.7 135.4 137.7 135.2 137.5L123.5 127.9C123.5 127.8 123.4 127.8 123.4 127.8C123.4 127.8 98.1 81.2 96.2 77.9V104.8C96.2 105 96.1 105.2 95.9 105.3C95.7 105.4 95.5 105.4 95.4 105.3L83.7 95.8C83.6 95.7 83.5 95.6 83.5 95.4V42L135.3 0.099997C135.5 -0.100003 135.8 -0.100003 136 0.099997L187.8 41.9ZM135.8 1.1C136.3 1.6 161.6 21.9 161.6 21.9C161.6 21.9 170.2 28.9 177.3 34.6C176 35.7 172 38.9 166.9 42.9C162 38.6 156.9 34.2 156.9 34.2C156.8 34.1 156.7 34.1 156.6 34.1H114C113.9 34.1 113.7 34.2 113.6 34.2C113.6 34.2 109 38.5 104.4 42.7C99.5 38.7 95.7 35.6 94.3 34.5C109.1 22.8 135.4 1.4 135.8 1.1ZM166.2 43.6C161.4 39.4 156.6 35.2 156.5 35.1H114.3C114.1 35.3 109.8 39.3 105.4 43.4C117.6 53.3 135.4 67.7 135.8 68C136.2 67.7 153.9 53.5 166.2 43.6ZM135 85.7L124.6 76.9V102.9C124.6 103.1 124.5 103.3 124.2 103.4C124 103.5 123.7 103.4 123.6 103.1C123.6 103.1 96.1 53 96 52.8C95.9 52.7 95.7 52.6 95.5 52.4L84.5 43.2V95C84.8 95.3 93.7 102.5 95.1 103.6V75.7C95.1 75.5 95.2 75.3 95.5 75.2C95.7 75.2 96 75.3 96.1 75.5C96.1 75.5 124.1 126.9 124.2 127.1C124.4 127.2 133.5 134.6 135 135.8V85.7ZM98.3 54.7C103.4 64.1 122.1 98 123.7 100.9V76L98.3 54.7ZM135.8 85C136.2 84.6 156.7 67.4 171.6 54.9L183.2 45.2C185.3 43.4 186.6 42.4 186.7 42.2C185.9 41.5 178.7 35.8 178.2 35.3C177.6 35.8 136.2 69 136.2 69C136 69.2 135.8 69.2 135.6 69C135.6 69 94.5 35.7 93.8 35.2C93.2 35.6 86 41.5 85.2 42.1L97 52C105.3 59.1 116.4 68.4 124.6 75.3L135.8 85ZM187.1 94.5V43.4C186 44.2 183.9 46 183.9 46C183.9 46 172.9 55.2 161.5 64.8L136.4 85.9V135.7C138 134.4 186.7 94.8 187.1 94.5ZM176.1 66.6C175.9 66.5 175.7 66.5 175.6 66.7L147.2 89.6C147.1 89.7 147 89.8 147 90V111.9C147 112.1 147.1 112.3 147.3 112.3C147.5 112.4 147.7 112.4 147.8 112.2L176.2 89.2C176.3 89.1 176.4 89 176.4 88.8V67C176.5 66.9 176.3 66.6 176.1 66.6ZM175.4 88.6V68.1C173.8 69.4 148.3 89.9 148 90.2V110.8C149.6 109.5 175 88.9 175.4 88.6Z" fill="white"/>
<path fill-rule="evenodd" clip-rule="evenodd" d="M67.8 54V109.8H53.1L9.1 61V109.8H0.199997V54H14.8L58.8 103V54H67.8Z" fill="white"/>
<path fill-rule="evenodd" clip-rule="evenodd" d="M259 54H268.4L240.9 109.8H228.4L200.6 54H209.9L230.6 94.4L232.6 98.7C233.4 100.4 234 101.8 234.5 103H234.7C235.9 100.2 237.1 97.4 238.5 94.5L259 54Z" fill="white"/>
<path fill-rule="evenodd" clip-rule="evenodd" d="M242.8 165.5V221.2H228.6L185.9 172.5V221.2H177.2V165.5H191.4L234.1 214.4V165.5H242.8Z" fill="white"/>
<path fill-rule="evenodd" clip-rule="evenodd" d="M132.7 209.4H93.9L88 221.2H78.8L106.9 165.6H119.1L147.8 221.2H138.7L132.7 209.4ZM130.2 202.9L113.2 170.6L96.4 202.9H130.2V202.9Z" fill="white"/>
<path fill-rule="evenodd" clip-rule="evenodd" d="M319 98H279.8L273.8 109.8H264.5L292.9 54H305.2L334.2 109.8H325L319 98ZM316.4 91.5L299.2 59.1L282.2 91.5H316.4Z" fill="white"/>
<path fill-rule="evenodd" clip-rule="evenodd" d="M8.9 165.5V213.7H49.4V221.2H0V165.5H8.9Z" fill="white"/>
<path fill-rule="evenodd" clip-rule="evenodd" d="M270.5 221.2V165.6H305.4C316.7 165.6 324.3 167.4 328.3 170.9C332.3 174.4 334.3 181.1 334.3 191C334.3 203.1 332.5 211.1 328.9 215.1C325.3 219.2 318.2 221.2 307.6 221.2H270.5ZM279.5 215.9H303.5C312.9 215.9 319 214.5 321.7 211.9C324.4 209.2 325.8 203.3 325.8 194.1C325.8 183.9 324.6 177.6 322.3 174.9C319.9 172.2 314.3 170.9 305.3 170.9H279.4V215.9H279.5Z" fill="white"/>
<path d="M10.9 252.9V253.6C10.9 253.9 10.9 254.1 10.8 254.3C10.7 254.5 10.6 254.6 10.5 254.7L10.2 254.9L9.9 255C9.6 255.1 9.3 255.1 9 255.1H7.9H6.3H5.6L4.7 255H4.3H4L3.7 254.8L3.6 254.7L3.5 254.6C3.4 254.5 3.2 254.3 3.1 254.2C3 254 2.9 253.8 2.9 253.6C2.8 253.4 2.8 253.2 2.8 253.1C2.8 253 2.8 252.8 2.8 252.7C2.8 252.5 2.8 252.3 2.8 252.1C2.8 251.9 2.8 251.6 2.8 251.4V246.5C2.8 245.7 3 245 3.4 244.6C3.6 244.4 3.8 244.3 4.1 244.2C4.3 244.1 4.5 244.1 4.7 244C4.9 243.9 5.1 243.9 5.2 243.9C5.6 243.9 6 243.8 6.5 243.8H7.8H8H8.8L9.4 243.9C9.7 244 10 244.1 10.2 244.2C10.4 244.4 10.5 244.6 10.6 244.9C10.7 245.2 10.7 245.7 10.7 246.2V247.2H13.4V246L13.3 245.4L13.2 244.8L13.1 244.2C12.9 243.5 12.5 242.9 11.9 242.5C11.6 242.3 11.2 242.1 10.9 242C10.7 241.9 10.4 241.9 10.2 241.8C10 241.7 9.8 241.7 9.5 241.7L8.6 241.6H6.9H6H5L3.5 241.8C2.5 242 1.7 242.4 1.1 243.1C0.9 243.3 0.7 243.5 0.6 243.8C0.5 244 0.4 244.3 0.3 244.6C0.2 244.9 0.1 245.2 0.1 245.5C0.1 245.8 0 246.2 0 246.5V252.4C0 253.2 0.1 253.9 0.4 254.6C0.7 255.3 1 255.8 1.4 256.1C1.8 256.4 2.1 256.6 2.3 256.7C2.6 256.9 2.9 257 3.2 257.1L3.7 257.2C3.7 257.2 3.8 257.2 3.9 257.3C4 257.3 4.1 257.3 4.2 257.3C4.2 257.3 4.3 257.3 4.4 257.4H8.2L8.8 257.3H9.5L10.6 257.1C11.4 256.9 12 256.6 12.5 256.2C13 255.7 13.3 255.2 13.4 254.6C13.5 254.5 13.5 254.3 13.5 254.2C13.5 254.1 13.5 254 13.5 253.9V253.6C13.5 253.6 13.5 253.5 13.5 253.4V251.3H11L10.9 252.9ZM27 248.2H18.5V241.7H15.8V257.3H18.5V250.4H27V257.3H29.6V241.7H27V248.2ZM45.3 244.2C45.2 243.9 45.1 243.6 45 243.4L44.7 243C44.3 242.5 43.8 242.2 43.2 242L42.7 241.8L42.2 241.7C41.9 241.6 41.6 241.6 41.2 241.6L39.9 241.5H38.4C37.6 241.5 36.9 241.5 36.2 241.6C35.6 241.7 35 241.8 34.5 242C34.2 242.2 33.9 242.3 33.7 242.5C33.5 242.7 33.3 242.9 33.1 243.1C32.8 243.5 32.6 243.9 32.5 244.3L32.4 244.8C32.4 244.9 32.3 245 32.3 245C32.3 245 32.3 245.1 32.3 245.2C32.3 245.3 32.3 245.4 32.3 245.6V246.4V252.3C32.3 254.1 32.7 255.3 33.5 256.1C34.1 256.7 34.7 257 35.5 257.2C36.3 257.3 37.1 257.4 38.1 257.4H39.9H40.8L41.7 257.3C42.4 257.2 43 257.1 43.4 256.9C44 256.6 44.4 256.3 44.7 255.8C44.9 255.6 45 255.3 45.1 255.1L45.2 254.9L45.3 254.7C45.4 254.6 45.4 254.4 45.4 254.3C45.6 253.8 45.6 253.2 45.6 252.3V246.2L45.5 245.4C45.4 244.9 45.4 244.5 45.3 244.2ZM43 252.4C43 253.4 42.8 254.2 42.5 254.6C42.3 254.9 41.9 255 41.5 255.1L40.9 255.2H40.4H38.9H37.5H36.9L36.5 255.1L36.2 255C35.8 254.9 35.6 254.7 35.4 254.5C35.1 254 34.9 253.2 34.9 252.3V246.9L35 245.9V245.6L35.1 245.3L35.3 244.7C35.5 244.5 35.7 244.3 35.9 244.2C36.2 244.1 36.5 244 36.8 244C37.1 243.9 37.6 243.9 38.3 243.9H38.9H39.5H39.9L41.1 244C41.7 244.1 42.1 244.2 42.4 244.5C42.6 244.7 42.8 245 42.9 245.4C43 245.6 43 245.8 43 246C43 246.2 43 246.5 43 246.8V252.4V252.4ZM67.1 252.9V253.6C67.1 253.9 67 254.1 67 254.3C66.9 254.5 66.8 254.6 66.7 254.7L66.4 254.9L66 255C65.7 255.1 65.4 255.1 65.1 255.1H64H62.5H61.8L60.9 255L60.5 254.9H60.2L59.9 254.7L59.8 254.6L59.7 254.5C59.5 254.4 59.4 254.2 59.3 254.1C59.2 253.9 59.1 253.7 59.1 253.5C59 253.3 59 253.1 59 253C59 252.9 59 252.7 59 252.6C59 252.4 59 252.2 59 252C59 251.8 59 251.5 59 251.3V246.4C59 245.6 59.2 244.9 59.6 244.5C59.8 244.3 60.1 244.2 60.3 244.1C60.5 244 60.7 244 60.9 243.9C61.1 243.8 61.3 243.8 61.5 243.8C61.9 243.8 62.3 243.7 62.8 243.7H64.1H64.4H65.2L65.8 243.8C66.1 243.9 66.4 244 66.6 244.1C66.8 244.3 66.9 244.5 67 244.8C67.1 245.1 67.1 245.6 67.1 246.1V247.1H69.8V245.9V245.3L69.7 244.7L69.5 244.1C69.3 243.4 68.9 242.8 68.3 242.4C68 242.2 67.6 242 67.3 241.9C67.1 241.8 66.8 241.8 66.6 241.7C66.4 241.6 66.1 241.6 65.9 241.6L64.9 241.5H63.1L62.2 241.6H61.3L59.7 241.8C58.7 242 57.9 242.4 57.3 243.1C57.1 243.3 56.9 243.5 56.8 243.8C56.7 244 56.6 244.3 56.5 244.6C56.4 244.9 56.3 245.2 56.3 245.5C56.2 245.8 56.2 246.2 56.2 246.5V252.4C56.2 253.2 56.3 253.9 56.6 254.6C56.9 255.3 57.2 255.8 57.6 256.1C58 256.4 58.2 256.6 58.5 256.7C58.8 256.9 59.1 257 59.4 257.1L59.9 257.2C59.9 257.2 60 257.2 60.1 257.3C60.2 257.3 60.3 257.3 60.4 257.3C60.5 257.3 60.5 257.3 60.6 257.4H64.4L65 257.3H65.7L66.9 257.1C67.7 256.9 68.3 256.6 68.8 256.2C69.3 255.7 69.6 255.2 69.7 254.6C69.8 254.5 69.8 254.3 69.8 254.2C69.8 254.1 69.8 254 69.9 253.9V253.6C69.9 253.5 69.9 253.5 69.9 253.4V251.3H67.3L67.1 252.9ZM82.9 252.3V253.2L82.8 253.9L82.7 254.2L82.6 254.4L82.5 254.5L82.3 254.7C82 254.9 81.7 255.1 81.3 255.1L80.7 255.2H80.3H80.1H79.3C79.2 255.2 79.1 255.2 79.1 255.2C79 255.2 78.9 255.2 78.8 255.2H78.3C77.9 255.2 77.6 255.2 77.2 255.2L76.3 255.1C75.9 255 75.5 254.9 75.3 254.8C74.9 254.5 74.7 253.9 74.7 252.9V241.7H72V252.9V253.7L72.1 254.4C72.2 254.7 72.3 254.9 72.3 255.1C72.4 255.3 72.5 255.4 72.5 255.4C72.6 255.5 72.6 255.6 72.7 255.7L73 256L73.2 256.2L73.5 256.4L73.7 256.5L73.9 256.6C74.5 256.9 75.1 257.1 75.7 257.2C76.3 257.3 77.2 257.3 78.4 257.3H80.2L81.7 257.2C82.7 257.1 83.5 256.7 84.1 256.3C85.1 255.5 85.6 254.2 85.6 252.6V241.6H82.9V252.3ZM101.2 244.2C101.1 243.9 101 243.6 100.9 243.4L100.6 243C100.2 242.5 99.7 242.2 99.1 242L98.6 241.8L98.1 241.7C97.8 241.6 97.5 241.6 97.1 241.6L95.8 241.5H94.3C93.5 241.5 92.8 241.5 92.2 241.6C91.6 241.7 91 241.8 90.5 242C90.2 242.2 89.9 242.3 89.7 242.5C89.5 242.7 89.3 242.9 89.1 243.1C88.8 243.5 88.6 243.9 88.5 244.3L88.4 244.8C88.4 244.9 88.3 245 88.3 245C88.3 245 88.3 245.1 88.3 245.2C88.3 245.3 88.3 245.4 88.3 245.6V246.4V252.3C88.3 254.1 88.7 255.3 89.5 256.1C90.1 256.7 90.7 257 91.5 257.2C92.3 257.3 93.1 257.4 94 257.4H95.8H96.8L97.7 257.3C98.4 257.2 98.9 257.1 99.4 256.9C100 256.6 100.5 256.3 100.8 255.8C101 255.6 101.1 255.3 101.2 255.1L101.3 254.9L101.4 254.7C101.5 254.6 101.5 254.4 101.5 254.3C101.6 253.8 101.7 253.2 101.7 252.3V246.2L101.6 245.4C101.4 244.9 101.3 244.5 101.2 244.2ZM98.9 252.4C98.9 253.4 98.7 254.2 98.4 254.6C98.2 254.9 97.8 255 97.4 255.1L96.8 255.2H96.3H94.8H93.4H92.8L92.4 255.1L92 255C91.6 254.9 91.4 254.7 91.2 254.5C90.9 254 90.7 253.2 90.7 252.3V246.9L90.8 245.9V245.6V245.3L91 244.7C91.2 244.5 91.4 244.3 91.6 244.2C91.9 244.1 92.2 244 92.5 244C92.8 243.9 93.3 243.9 94 243.9H94.6H95.2H95.6L96.8 244C97.4 244.1 97.9 244.2 98.1 244.5C98.3 244.7 98.5 245 98.5 245.4C98.6 245.6 98.6 245.8 98.6 246C98.6 246.2 98.6 246.5 98.6 246.8V252.4H98.9ZM94.7 239.2L97.4 240.5L98.1 239.3L94.6 237.3L91.1 239.3L91.8 240.5L94.7 239.2ZM148.5 239.2L151.2 240.5L151.9 239.3L148.4 237.3L144.9 239.3L145.6 240.5L148.5 239.2ZM93.5 261H96.2V258.4H93.5V261ZM114.6 252.9V253.6C114.6 253.9 114.6 254.1 114.5 254.3C114.4 254.5 114.3 254.6 114.2 254.7L113.9 254.9L113.6 255.1C113.3 255.2 113 255.2 112.7 255.2H111.5H110H109.3L108.4 255.1L108 255H107.7L107.4 254.8L107.3 254.7L107.2 254.6C107.1 254.5 106.9 254.3 106.8 254.2C106.7 254 106.6 253.8 106.6 253.6C106.5 253.4 106.5 253.2 106.5 253.1C106.5 253 106.5 252.8 106.5 252.7C106.5 252.5 106.5 252.3 106.5 252.1C106.5 251.9 106.5 251.6 106.5 251.4V246.5C106.5 245.7 106.7 245 107.1 244.6C107.3 244.4 107.6 244.3 107.8 244.2C108 244.1 108.2 244.1 108.4 244C108.6 243.9 108.8 243.9 109 243.9C109.4 243.9 109.8 243.8 110.3 243.8H111.6H111.9H112.7L113.3 243.9C113.6 244 113.9 244.1 114.1 244.2C114.3 244.4 114.4 244.6 114.5 244.9C114.6 245.2 114.6 245.7 114.6 246.2V247.2H117.2V246V245.4L117.1 244.8L117 244.2C116.8 243.5 116.4 242.9 115.8 242.5C115.5 242.3 115.1 242.1 114.8 242C114.6 241.9 114.3 241.9 114.1 241.8C113.9 241.7 113.7 241.7 113.4 241.7L112.4 241.6H110.6L109.7 241.7H108.8L107.2 241.9C106.2 242.1 105.4 242.5 104.8 243.2C104.6 243.4 104.4 243.6 104.3 243.9C104.2 244.1 104.1 244.4 104 244.7C103.9 245 103.8 245.3 103.8 245.6C103.8 245.9 103.7 246.3 103.7 246.6V252.5C103.7 253.3 103.8 254 104.1 254.7C104.4 255.4 104.7 255.9 105.1 256.2C105.4 256.5 105.7 256.7 106 256.8C106.3 257 106.6 257.1 106.9 257.2L107.4 257.3C107.4 257.3 107.5 257.3 107.6 257.4C107.7 257.4 107.8 257.4 107.9 257.4C107.9 257.4 108 257.4 108.1 257.5H111.9L112.6 257.4H113.3L114.5 257.2C115.3 257 115.9 256.7 116.4 256.3C116.9 255.8 117.2 255.3 117.3 254.7C117.3 254.6 117.4 254.4 117.4 254.3C117.4 254.2 117.4 254.1 117.5 254V253.7C117.5 253.7 117.5 253.6 117.5 253.5V251.4H114.9L114.6 252.9ZM139.8 251C139.7 250.8 139.7 250.6 139.7 250.5C139.5 249.8 139.1 249.3 138.5 248.9C138.2 248.7 138 248.6 137.8 248.5C137.7 248.5 137.7 248.5 137.6 248.4C137.5 248.4 137.5 248.4 137.4 248.3L137 248.2L135.9 248C135.5 248 135.3 247.9 135.1 247.9H132.7H132.1H131.5C131.1 247.8 130.8 247.7 130.6 247.6C130.4 247.5 130.2 247.2 130.1 246.9C130 246.6 129.9 246.2 129.9 245.6V245L130 244.5L130.1 244.1L130.2 244C130.4 243.8 130.8 243.7 131.3 243.6C131.8 243.5 132.4 243.5 133.1 243.5H133.5L135.1 243.6H135.3H135.6L136.1 243.7L136.4 243.9L136.6 244C136.8 244.2 136.9 244.3 136.9 244.6L137 245.2V246.2H139.6V245.4C139.6 244.6 139.5 244 139.3 243.5C139.1 242.9 138.8 242.5 138.3 242.2C137.9 241.9 137.3 241.6 136.4 241.5C135.6 241.4 134.6 241.3 133.4 241.3C132.2 241.3 131.2 241.4 130.4 241.5C129.6 241.6 128.9 241.9 128.4 242.3C127.5 243 127.1 244.3 127.1 246.1V246.6L127.2 247.1L127.3 247.6L127.4 247.9C127.6 248.5 128 248.9 128.4 249.2L128.7 249.4L129 249.5L129.2 249.6L129.4 249.7L129.6 249.8H129.8L130.4 250L130.8 250.1H131.3L131.9 250.2H132.3H132.9L134.4 250.3H134.9L135.4 250.4L136.2 250.5C136.5 250.5 136.7 250.6 136.9 250.8C137.1 251 137.2 251.1 137.2 251.4C137.3 251.7 137.3 252 137.3 252.4V252.7C137.3 253.2 137.3 253.6 137.2 253.9C137.1 254.2 137 254.5 136.8 254.6L136.4 254.8C136.3 254.8 136.2 254.9 136.2 254.9H135.9L135.2 255H134.4H134.2H133.1H132.2H131L130.7 254.9L130.4 254.8L130.2 254.6C130 254.4 129.9 254.2 129.9 254L129.8 253.5V253.1L129.7 252.7V252.4C129.7 252.3 129.8 252.1 129.8 251.9V251.6H127.1V252.9V253.4V253.9L127.2 254.5L127.3 254.8C127.5 255.4 127.9 255.9 128.3 256.2C128.8 256.6 129.5 256.8 130.1 256.9L130.7 257H131.1H131.2L131.8 257.1H133.1C134.1 257.1 135.1 257 136.1 256.9C137 256.8 137.8 256.6 138.3 256.3C138.9 255.9 139.3 255.4 139.5 254.7C139.6 254.3 139.7 254 139.8 253.6C139.9 253.3 139.9 252.8 139.9 252.3V251.7L139.8 251.2V251ZM154.8 244.2C154.7 243.9 154.6 243.6 154.5 243.4L154.2 243C153.8 242.5 153.3 242.2 152.7 242L152.2 241.8L151.7 241.7C151.4 241.6 151.1 241.6 150.7 241.6L149.4 241.5H147.9C147.1 241.5 146.4 241.5 145.8 241.6C145.2 241.7 144.6 241.8 144.1 242C143.8 242.2 143.5 242.3 143.3 242.5C143.1 242.7 142.9 242.9 142.7 243.1C142.4 243.5 142.2 243.9 142.1 244.3L142 244.8C142 244.9 141.9 245 141.9 245C141.9 245.1 141.9 245.2 141.9 245.2C141.9 245.3 141.9 245.4 141.9 245.6V246.4V252.3C141.9 254.1 142.3 255.3 143.1 256.1C143.7 256.7 144.3 257 145.1 257.2C145.9 257.3 146.7 257.4 147.6 257.4H149.4H150.4L151.3 257.3C152 257.2 152.6 257.1 153 256.9C153.6 256.6 154.1 256.3 154.4 255.8C154.6 255.6 154.7 255.3 154.8 255.1L154.9 254.9L155 254.7C155.1 254.6 155.1 254.4 155.1 254.3C155.3 253.8 155.3 253.2 155.3 252.3V246.2L155.2 245.4C155 244.9 154.9 244.5 154.8 244.2ZM152.5 252.4C152.5 253.4 152.3 254.2 152 254.6C151.8 254.9 151.4 255 151 255.1L150.4 255.2H149.9H148.4H147H146.3L145.9 255.1L145.5 255C145.1 254.9 144.9 254.7 144.7 254.5C144.4 254 144.2 253.2 144.2 252.3V246.9L144.3 245.9V245.6L144.4 245.3L144.6 244.7C144.8 244.5 145 244.3 145.2 244.2C145.5 244.1 145.8 244 146.1 244C146.4 243.9 146.9 243.9 147.6 243.9H148.2H148.8H149.3L150.5 244C151.1 244.1 151.5 244.2 151.8 244.5C152 244.7 152.2 245 152.3 245.4C152.4 245.6 152.4 245.8 152.4 246C152.4 246.2 152.4 246.5 152.4 246.8V252.4H152.5ZM147.9 236.6L146.6 235.2L142.7 237.5L143.7 238.7L147.9 236.6ZM169.7 254.3L161.4 241.7H157.7V257.3H160.4V244.8L168.8 257.3H172.4V241.7H169.7V254.3ZM181.3 251.3H186.4V252.8C186.4 253.3 186.4 253.7 186.3 254C186.2 254.3 186.1 254.5 185.9 254.7C185.7 254.8 185.6 254.9 185.4 255C185.3 255 185.2 255 185.2 255.1C185.1 255.1 185 255.1 184.9 255.1L184.4 255.2H184C184 255.2 183.9 255.2 183.8 255.2H183.1C183 255.2 182.9 255.2 182.9 255.2H181.6H181.2H180.5L179.5 255.1L178.9 254.9C178.7 254.8 178.6 254.8 178.5 254.7C178.2 254.5 178 254.2 177.9 253.9C177.8 253.5 177.7 253.1 177.7 252.5V246.5V246.1L177.8 245.6L177.9 245.3C178 244.9 178.2 244.6 178.4 244.5C178.6 244.3 178.9 244.2 179.3 244.1C179.7 244.1 180.1 244 180.6 244H182.6H184.2C184.3 244 184.4 244 184.5 244C184.6 244 184.8 244 185 244.1L185.4 244.2C185.8 244.3 186 244.4 186.2 244.6C186.3 244.7 186.4 244.9 186.4 245.1C186.4 245.4 186.5 245.7 186.5 246.1V247.1H189.1V245.6C189.1 245.4 189.1 245.2 189.1 245.1C189.1 245 189.1 244.8 189 244.7C188.9 244.4 188.9 244.2 188.8 244C188.6 243.5 188.3 243.1 187.8 242.8C187 242.2 185.9 241.9 184.5 241.9H180.2C180 241.9 179.8 241.9 179.6 241.9C179.4 241.9 179.2 241.9 179 242C178.8 242 178.6 242.1 178.5 242.1C178.3 242.1 178.2 242.2 178 242.2C177.3 242.4 176.8 242.7 176.4 243.2C175.5 244.1 175 245.5 175 247.4V253L175.1 253.7L175.2 254.3L175.3 254.8C175.6 255.6 176 256.1 176.4 256.5C176.8 256.9 177.2 257.1 177.7 257.3C177.9 257.4 178.2 257.5 178.4 257.5C178.6 257.5 178.8 257.6 178.9 257.6C179 257.6 179.1 257.6 179.3 257.6C179.9 257.7 180.5 257.7 181 257.7H182.3L183.5 257.6H185.1L185.5 257.5L186.3 257.3C186.6 257.2 186.8 257.1 187.1 257L187.4 256.8L187.7 256.6C188.2 256.2 188.5 255.7 188.8 255.1C189 254.5 189.1 253.7 189.1 252.8V249.1H181.3V251.3V251.3ZM212 249.6C211.8 249.3 211.5 249.1 211.1 249L211.4 248.8C211.8 248.5 212 248.1 212.2 247.6C212.3 247.3 212.4 247 212.4 246.7C212.4 246.4 212.5 246 212.5 245.6C212.5 245 212.4 244.4 212.3 243.9C212.2 243.6 212.1 243.4 212 243.2C211.9 243 211.8 242.8 211.6 242.6C211 241.9 210 241.6 208.6 241.6H199.8V257.2H208.9C209.8 257.2 210.6 257 211.2 256.6C211.8 256.2 212.3 255.7 212.5 255.1L212.7 254.6L212.8 254.2L212.9 253.9C212.9 253.8 212.9 253.8 212.9 253.6V253C212.9 252.2 212.9 251.6 212.7 251C212.6 250.6 212.4 250 212 249.6ZM202.4 243.9H207.4H208.2L208.8 244C209.1 244.1 209.3 244.2 209.4 244.3C209.5 244.4 209.6 244.6 209.6 244.8C209.6 244.9 209.7 245 209.7 245C209.7 245 209.7 245.1 209.7 245.2C209.7 245.3 209.7 245.4 209.7 245.4V245.6V246.4L209.6 247C209.5 247.3 209.4 247.6 209.2 247.7C208.9 248 208.3 248.2 207.4 248.2H202.3V243.9H202.4ZM210.2 253.3V253.7C210.2 253.8 210.1 254 210.1 254.1L210 254.3C209.8 254.5 209.6 254.6 209.4 254.7C209.1 254.8 208.7 254.9 208.2 254.9H202.5V250.3H208.5C209.7 250.3 210.4 251.1 210.4 252.7V253.3H210.2ZM225.9 239.2L222.1 237.1L220.7 238.4L224.9 240.3L225.9 239.2ZM244.5 254.3L236.1 241.7H232.4V257.3H235.1V244.8L243.5 257.3H247.1V241.7H244.4V254.3H244.5ZM256.1 251.3H261.2V252.8C261.2 253.3 261.1 253.7 261.1 254C261 254.3 260.9 254.5 260.7 254.7C260.5 254.8 260.4 254.9 260.2 255C260.1 255 260 255 260 255.1C259.9 255.1 259.8 255.1 259.7 255.1L259.2 255.2H258.8H258.7H258C257.9 255.2 257.8 255.2 257.8 255.2H256.5H256.1H255.4L254.5 255.1L253.9 254.9C253.7 254.8 253.6 254.8 253.5 254.7C253.2 254.5 253 254.2 252.9 253.9C252.8 253.5 252.7 253.1 252.7 252.5V246.5V246.1L252.8 245.6L252.9 245.3C253.1 244.9 253.2 244.6 253.4 244.5C253.6 244.3 253.9 244.2 254.3 244.1C254.6 244.1 255.1 244 255.5 244H257.5H259.1C259.2 244 259.3 244 259.4 244C259.5 244 259.7 244 259.9 244.1L260.3 244.2C260.7 244.3 260.9 244.4 261.1 244.6C261.2 244.7 261.3 244.9 261.3 245.1C261.4 245.4 261.4 245.7 261.4 246.1V247.1H264V245.6C264 245.4 264 245.2 264 245.1C264 245 264 244.8 263.9 244.7C263.8 244.4 263.8 244.2 263.7 244C263.5 243.5 263.2 243.1 262.7 242.8C261.9 242.2 260.8 241.9 259.4 241.9H255.1C254.9 241.9 254.7 241.9 254.5 241.9C254.3 241.9 254.2 241.9 254 242C253.8 242 253.6 242.1 253.5 242.1C253.3 242.1 253.2 242.2 253 242.2C252.3 242.4 251.8 242.7 251.4 243.2C250.5 244.1 250 245.5 250 247.4V253L250.1 253.7L250.2 254.3L250.4 254.8C250.7 255.6 251.1 256.1 251.5 256.5C251.9 256.9 252.3 257.1 252.8 257.3C253 257.4 253.3 257.5 253.5 257.5C253.7 257.5 253.9 257.6 254 257.6C254.1 257.6 254.2 257.6 254.4 257.6C255 257.7 255.6 257.7 256.2 257.7H257.5L258.7 257.6H260.3L260.7 257.5L261.5 257.3C261.8 257.2 262 257.1 262.3 257L262.7 256.8L263 256.6C263.5 256.2 263.8 255.7 264 255.1C264.2 254.5 264.4 253.7 264.4 252.8V249.1H256.6V251.3H256.1ZM285 251C284.9 250.8 284.9 250.6 284.9 250.5C284.7 249.8 284.3 249.3 283.7 248.9C283.4 248.7 283.2 248.6 283 248.5C282.9 248.5 282.9 248.5 282.8 248.4C282.7 248.4 282.7 248.4 282.6 248.3L282.2 248.2L281.1 248C280.7 248 280.4 247.9 280.3 247.9H277.9H277.3H276.7C276.3 247.8 276 247.7 275.8 247.6C275.5 247.5 275.4 247.2 275.3 246.9C275.2 246.6 275.1 246.2 275.1 245.6V245L275.2 244.5L275.3 244.1L275.4 244C275.6 243.8 276 243.7 276.5 243.6C276.9 243.5 277.6 243.5 278.3 243.5H278.7L280.3 243.6H280.6H280.9L281.4 243.7L281.7 243.9L281.9 244C282 244.2 282.1 244.3 282.2 244.6L282.3 245.2L282.4 246.2H285V245.4C285 244.6 284.9 244 284.7 243.5C284.5 242.9 284.1 242.5 283.7 242.2C283.3 241.9 282.6 241.6 281.8 241.5C281 241.4 280 241.3 278.8 241.3C277.6 241.3 276.6 241.4 275.8 241.5C275 241.6 274.3 241.9 273.8 242.3C272.9 243 272.5 244.3 272.5 246.1V246.6V247.1L272.6 247.6L272.7 247.9C272.9 248.5 273.2 248.9 273.7 249.2L274 249.4L274.3 249.5L274.5 249.6L274.7 249.7L274.9 249.8H275L275.6 250L276 250.1H276.5L277.1 250.2H277.5H278.1L279.6 250.3H280.1L280.6 250.4L281.4 250.5C281.7 250.5 281.9 250.6 282.1 250.8C282.3 251 282.4 251.1 282.4 251.4C282.5 251.7 282.5 252 282.5 252.4V252.7C282.5 253.2 282.5 253.6 282.4 253.9C282.3 254.2 282.2 254.5 282 254.6L281.6 254.8C281.5 254.8 281.4 254.9 281.4 254.9H281.1L280.4 255H279.6H279.4H278.3H277.4H276.2L275.9 254.9L275.6 254.8L275.4 254.6C275.2 254.4 275.1 254.2 275.1 254L275 253.5V253.1L274.9 252.7V252.4C274.9 252.3 275 252.1 275 251.9V251.6H272.3V252.9V253.4V253.9L272.4 254.5L272.5 254.8C272.7 255.4 273.1 255.9 273.5 256.2C274 256.6 274.6 256.8 275.3 256.9L275.9 257H276.3H276.4L276.9 257.1H278.3C279.3 257.1 280.3 257 281.3 256.9C282.3 256.8 283 256.6 283.5 256.3C284 255.9 284.4 255.4 284.7 254.7C284.9 254.3 285 254 285 253.6C285.1 253.3 285.1 252.8 285.1 252.3V251.7L285 251.2V251ZM292.2 241.6L286.1 257.2H288.9L290.1 254.1H297.6L298.9 257.2H301.7L295.4 241.6H292.2ZM290.8 251.9L293.7 244.5L296.7 251.9H290.8ZM296.9 238.4L295.5 237L291.6 239.1L292.7 240.2L296.9 238.4ZM315.2 254.3L306.9 241.7H303.2V257.3H305.9V244.8L314.3 257.3H317.9V241.7H315.2V254.3ZM326.8 249.1V251.4H331.9V252.9C331.9 253.4 331.9 253.8 331.8 254.1C331.7 254.4 331.6 254.6 331.4 254.8C331.2 254.9 331.1 255 330.9 255.1C330.8 255.1 330.7 255.1 330.7 255.2C330.6 255.2 330.5 255.2 330.4 255.2L329.9 255.3H329.5H329.4H328.6C328.5 255.3 328.4 255.3 328.4 255.3H327H326.6H325.9L325 255L324.4 254.8C324.2 254.7 324.1 254.7 324 254.6C323.7 254.4 323.5 254.1 323.4 253.8C323.3 253.4 323.2 253 323.2 252.4V246.4V246L323.3 245.5L323.4 245.2C323.5 244.8 323.7 244.5 323.9 244.4C324.1 244.2 324.4 244.1 324.8 244C325.2 244 325.6 243.9 326.1 243.9H328.1H329.7C329.8 243.9 329.9 243.9 330 243.9C330.1 243.9 330.3 243.9 330.5 244L330.9 244.1C331.3 244.2 331.5 244.3 331.7 244.5C331.8 244.6 331.9 244.8 331.9 245C332 245.3 332 245.6 332 246V247H334.6V245.5C334.6 245.3 334.6 245.1 334.6 245C334.6 244.9 334.6 244.7 334.6 244.6C334.5 244.3 334.4 244.1 334.4 243.9C334.2 243.4 333.9 243 333.5 242.7C332.7 242.1 331.6 241.8 330.2 241.8H325.9C325.7 241.8 325.5 241.8 325.3 241.8C325.1 241.8 325 241.8 324.8 241.9C324.6 241.9 324.4 242 324.3 242C324.1 242 324 242.1 323.8 242.1C323.1 242.3 322.6 242.6 322.2 243.1C321.3 244 320.8 245.4 320.8 247.3V252.9L320.9 253.6L321 254.2L321.1 254.7C321.4 255.5 321.8 256 322.2 256.4C322.6 256.8 323 257 323.5 257.2C323.7 257.3 324 257.4 324.2 257.4C324.4 257.4 324.6 257.5 324.7 257.5C324.8 257.5 324.9 257.5 325.1 257.5C325.7 257.6 326.3 257.6 326.8 257.6H328.1L329.3 257.5H330.9L331.3 257.4L332.1 257.2C332.4 257.1 332.6 257 332.9 256.9L333.3 256.7L333.6 256.5C334.1 256.1 334.4 255.6 334.7 255C334.9 254.4 335 253.6 335 252.7V249H326.8V249.1ZM229.9 240.5V243.1C229.9 243.3 229.9 243.4 229.8 243.5C229.7 243.6 229.7 243.6 229.7 243.6C229.6 243.6 229.5 243.6 229.5 243.6V243.4V243.1V241.6H229.2H228.7H226.9V252.3V253.2L226.8 253.9C226.8 254.1 226.7 254.2 226.7 254.4C226.6 254.5 226.5 254.6 226.4 254.7C226.3 254.8 226.1 254.9 226 254.9L225.8 255H225.5L225 255.1H224.6H224.4H223.6C223.5 255.1 223.5 255.1 223.4 255.1C223.3 255.1 223.2 255.1 223.1 255.1H222.6C222.3 255.1 221.9 255.1 221.5 255.1L220.5 255C220 254.9 219.7 254.8 219.5 254.7C219.1 254.4 219 253.8 219 252.8V241.6H216.4V252.9C216.4 253.4 216.4 253.9 216.6 254.4C216.7 254.7 216.8 254.9 216.9 255.2C217 255.4 217.1 255.5 217.1 255.6C217.2 255.7 217.2 255.7 217.2 255.8L217.5 256.1L217.7 256.4L218 256.6L218.3 256.8C218.9 257.1 219.5 257.3 220.1 257.4C220.7 257.5 221.6 257.5 222.8 257.5H224.6L226.1 257.4C227.1 257.3 227.8 257 228.5 256.6C229 256.2 229.4 255.7 229.6 255.1C229.8 254.5 229.9 253.7 229.9 252.9V245.6H230.5L231.1 245.5C231.5 245.4 231.8 245.2 232 244.8C232.2 244.5 232.3 244 232.3 243.4V240.7H229.9V240.5Z" fill="white"/>
<path d="M334.2 135.8H0V137.6H334.2V135.8Z" fill="white"/>
</g>
<defs>
<clipPath id="clip0">
<rect width="334.5" height="261" fill="white"/>
</clipPath>
</defs>
</svg>